<?xml version="1.0" encoding="UTF-8"?>
<!DOCTYPE svg PUBLIC "-//W3C//DTD SVG 1.1//EN" "http://www.w3.org/Graphics/SVG/1.1/DTD/svg11.dtd">
<!-- Creator: CorelDRAW X7 -->
<svg xmlns="http://www.w3.org/2000/svg" xml:space="preserve" width="29.6936mm" height="8.5341mm" version="1.1" shape-rendering="geometricPrecision" text-rendering="geometricPrecision" image-rendering="optimizeQuality" fill-rule="evenodd" clip-rule="evenodd"
viewBox="0 0 66471 19104"
 xmlns:xlink="http://www.w3.org/1999/xlink">
 <g id="Camada_x0020_1">
  <metadata id="CorelCorpID_0Corel-Layer"/>
  <path fill="#F5E429" d="M20947 18918l2256 -14198 4610 0c2873,0 4592,1734 4181,4551l-816 5076c-450,2829 -2791,4571 -5621,4571l-4610 0zm5038 -2723c1164,0 2089,-698 2275,-1848l817 -5076c92,-513 -71,-1073 -447,-1410 -312,-279 -733,-418 -1265,-418l-4169 0 2287 1207 -1191 7545 1693 0z"/>
  <path fill="#F5E429" d="M2918 18910l-2918 0 2256 -14199 2918 0 -1303 8169 3267 0 1303 -8169 2918 0 -2257 14199 -2917 0 526 -3307 -3268 0 -525 3307zm12097 194c-2330,0 -4045,-1117 -4045,-3481 0,-169 26,-461 78,-876l1594 -10036 2918 0 -1595 10017c-159,1117 272,1848 1459,1848 1134,0 1864,-721 2042,-1848l1595 -10017 2917 0 -1595 10036c-435,2772 -2574,4357 -5368,4357z"/>
  <polygon fill="#E30B43" points="66134,2801 66471,0 3091,1040 3548,1689 "/>
  <path fill="#E30B43" d="M35581 18910l-3054 0 5738 -14199 3695 0 1264 14199 -2898 0 -153 -2820 -3550 0 -1042 2820zm2042 -5544l2392 0 -253 -6029c-632,2017 -1409,4041 -2139,6029zm10716 5738c-2715,0 -4691,-1348 -4259,-4084l2917 0c-92,459 77,925 467,1206 891,641 3540,565 3540,-1498 0,-751 -476,-1283 -1206,-1459 -1448,-348 -2748,-531 -3734,-1643 -745,-841 -954,-1882 -778,-3005 419,-2679 2644,-4104 5329,-4104 2639,0 4541,1367 4104,3987l-2918 0c102,-405 -77,-890 -408,-1138 -817,-612 -3209,-493 -3209,1488 0,729 438,1229 1128,1401l1478 350c2540,601 3470,2103 3151,4298 -208,1297 -814,2321 -1819,3073 -1004,752 -2265,1128 -3783,1128zm8908 -194l-2917 0 2256 -14199 2917 0 -1379 8656 3267 0 1380 -8656 2918 0 -2257 14199 -2917 0 449 -2820 -3268 0 -449 2820z"/>
  <path fill="#E30B43" d="M22253 18918l2256 -14198 4610 0c2873,0 4592,1734 4181,4551l-817 5076c-449,2829 -2790,4571 -5621,4571l-4609 0zm5038 -2723c1164,0 2089,-698 2275,-1848l817 -5076c92,-513 -71,-1073 -447,-1410 -312,-279 -733,-418 -1265,-418l-4169 0 2287 1207 -1191 7545 1693 0z"/>
 </g>
</svg>
