<?xml version="1.0" encoding="UTF-8"?>
<!DOCTYPE svg PUBLIC "-//W3C//DTD SVG 1.1//EN" "http://www.w3.org/Graphics/SVG/1.1/DTD/svg11.dtd">
<!-- Creator: CorelDRAW X7 -->
<svg xmlns="http://www.w3.org/2000/svg" xml:space="preserve" width="33.9853mm" height="6.1637mm" version="1.1" shape-rendering="geometricPrecision" text-rendering="geometricPrecision" image-rendering="optimizeQuality" fill-rule="evenodd" clip-rule="evenodd"
viewBox="0 0 25558 4635"
 xmlns:xlink="http://www.w3.org/1999/xlink">
 <g id="Camada_x0020_1">
  <metadata id="CorelCorpID_0Corel-Layer"/>
  <g id="_2189072813792">
   <path fill="white" d="M3215 2222l1115 0 0 1847c-255,182 -548,322 -879,420 -331,98 -662,146 -993,146 -467,0 -887,-98 -1261,-296 -374,-197 -666,-472 -879,-824 -212,-353 -318,-752 -318,-1197 0,-446 106,-845 318,-1197 213,-353 508,-628 885,-825 378,-197 805,-296 1280,-296 416,0 790,70 1121,210 331,140 607,342 828,605l-803 726c-301,-331 -662,-497 -1082,-497 -382,0 -690,116 -923,347 -234,232 -351,540 -351,927 0,246 54,466 160,659 106,193 254,344 445,452 191,108 410,162 656,162 242,0 469,-49 681,-146l0 -1223zm3783 -2133l2107 0c488,0 921,91 1299,274 378,182 671,441 879,777 208,335 312,728 312,1178 0,450 -104,842 -312,1178 -208,335 -501,594 -879,776 -378,183 -811,274 -1299,274l-2107 0 0 -4457zm2056 3451c382,0 689,-108 920,-325 232,-216 347,-515 347,-897 0,-382 -115,-682 -347,-898 -231,-217 -538,-325 -920,-325l-796 0 0 2445 796 0zm6126 140l-1885 0 -350 866 -1287 0 1968 -4457 1242 0 1973 4457 -1311 0 -350 -866zm-370 -929l-573 -1427 -573 1427 1146 0zm3954 1884c-361,0 -711,-44 -1050,-133 -340,-89 -616,-208 -828,-357l414 -930c199,132 431,238 694,319 263,80 522,121 777,121 484,0 725,-121 725,-363 0,-128 -68,-222 -206,-283 -138,-62 -360,-127 -666,-195 -335,-72 -615,-149 -840,-232 -225,-83 -418,-215 -580,-398 -161,-183 -242,-429 -242,-739 0,-271 75,-516 223,-735 149,-219 371,-392 666,-519 295,-127 656,-191 1085,-191 293,0 582,33 866,99 285,65 535,162 751,289l-388 936c-424,-229 -836,-343 -1235,-343 -251,0 -433,37 -548,111 -114,74 -172,171 -172,290 0,119 68,208 204,267 136,60 355,121 656,185 339,72 621,149 844,232 222,83 416,215 579,395 163,180 245,425 245,735 0,268 -74,510 -223,726 -148,217 -371,390 -668,519 -297,130 -658,194 -1083,194zm6794 -4546l0 4457 -1261 0 0 -1738 -1719 0 0 1738 -1260 0 0 -4457 1260 0 0 1675 1719 0 0 -1675 1261 0z"/>
   <path fill="#E30B43" d="M5648 4604c-204,0 -376,-68 -516,-204 -140,-136 -210,-308 -210,-516 0,-212 69,-384 207,-516 138,-131 311,-197 519,-197 212,0 386,66 522,197 136,132 204,304 204,516 0,208 -69,380 -207,516 -138,136 -311,204 -519,204z"/>
  </g>
 </g>
</svg>
